
<svg version="1.1" xmlns="http://www.w3.org/2000/svg" xmlns:xlink="http://www.w3.org/1999/xlink" x="0px" y="0px"
viewBox="0 0 1920 1080" style="enable-background:new 0 0 1920 1080;" xml:space="preserve">
<style type="text/css">
.st0{display:none;}
.st1{display:inline;}
.st2{font-family:'Myriad-Roman';}
.st3{font-size:232.6187px;}
.st4{font-family:'MyriadPro-Regular';}
.st5{font-size:348.928px;}
.st6{fill:#FFFFFF;stroke:#000000;stroke-width:8;stroke-miterlimit:10;}
</style>
<g id="Layer_1">
<g id="Layer_2" class="st0">
<text transform="matrix(1 0 0 1 947.8193 519.3223)" class="st1 st2 st3">J</text>
</g>
<g id="Layer_3" class="st0">
<text transform="matrix(0.6892 0 0 1 847.0264 519.8525)" class="st1 st2 st3">E</text>
</g>
<g id="Layer_5" class="st0">
<text transform="matrix(1 0 0 1 764.8574 542.0547)" class="st1 st4 st5">{</text>
<text transform="matrix(1 0 0 1 1005.6338 543.3398)" class="st1 st4 st5">}</text>
</g>
<g id="Layer_6">
<g>
<g>
<g>
<path d="M972.57,327.89c-6.26-3.16-13.89-0.66-17.05,5.6l-22.19,43.89c0,0-54.49,1.76-74.33,7.37
c-9.32,2.64-19.62,6.89-22.31,16.19c-3.02,10.42-0.24,21.92,7.23,29.8c0,0,17.19,19.57,8.83,57.69
c-5.3,24.15,2.19,42.09,10.36,50.74c2.14,6.18,3.6,12.51,4.94,18.89c1.43,8.52,2.53,16.99,2.91,25.63
c0.4,9-0.09,17.94-0.76,26.91c-0.27,2.34-0.53,4.68-0.8,6.99c-0.87,5.83-1.83,11.63-3.08,17.39
c-1.23,5.66-2.76,11.23-4.34,16.8c-2.51,8.85-5.93,17.42-9.4,25.93l-0.26,0.64c-3.07,7.62,0.54,16.55,8.01,19.94
c7.42,3.36,16.43,0.23,20.19-6.99c4.61-8.87,9.16-17.8,12.85-27.11c4.63-11.67,8.65-23.51,11.65-35.7
c1.01-4.09,1.87-8.2,2.73-12.32c1.82-10.52,3.33-21.03,3.88-31.71c0.53-10.39,0.35-20.78-0.54-31.14
c11.02,23.16,19.23,47.66,23.72,72.93c1.23,6.93,2.06,13.89,2.81,20.89c0.5,6.91,0.9,13.81,0.89,20.74
c0,4.65-0.19,9.29-0.39,13.94l-0.03,0.76c-0.32,8.18,6.04,15.36,14.19,16.07c8.22,0.71,15.74-5.4,16.74-13.58
c0.63-5.16,1.27-10.31,1.68-15.49c0.64-8.01,0.82-16.01,0.88-24.04c-0.33-12.71-1.16-25.33-2.97-37.93
c-1.83-12.78-4.49-25.44-7.86-37.9c-5.83-21.57-13.8-42.6-23.75-62.61c-0.08-1.23-0.2-2.47-0.39-3.71
c-1.23-8.08-2.51-16.11-4.13-24.12c-2.04-10.09-4.84-19.93-7.89-29.76c-1.99-5.52-4.01-10.99-6.3-16.38
c-2.33-5.48-4.99-10.78-7.87-15.99l36.67-10.6l1.67-0.48c4.01-1.19,7.45-4.16,9.07-8.36l20.81-53.91
C980.97,337.79,978.42,330.85,972.57,327.89C966.31,324.73,978.42,330.85,972.57,327.89z"/>
<path d="M876.01,342.11c0-18.17-11.95-34.77-29.19-40.51c-17.37-5.78-36.98,0.46-47.85,15.17c-10.9,14.75-11,35.47-0.25,50.33
c10.75,14.86,30.38,21.29,47.84,15.6c17.27-5.63,29.33-22.15,29.44-40.31C876.01,342.3,876.01,342.21,876.01,342.11
C876.01,318.54,876.01,365.68,876.01,342.11z"/>
<path d="M1022.82,326.05l-25.08-49.6c-3.49-6.84-12.06-9.78-18.99-6.47c-6.67,3.19-9.84,11.21-7.19,18.1l23.52,60.93
c1.73,4.4,5.44,8.06,10.34,9.47l1.81,0.52l31.72,9.17c-10.07,18.34-16.51,38.52-20.59,58.98c-1.83,9.2-3.19,18.48-4.15,27.81
c-0.51,4.92-0.91,9.86-1.21,14.8c-0.32,5.22-0.75,10.53-0.46,15.76c-10.43,23.22-18.51,47.36-24.32,72.14
c-2.78,11.84-4.82,23.88-6.29,35.95c-1.44,11.8-2.06,23.61-2.37,35.49c0.07,8.93,0.25,17.83,0.96,26.73
c0.48,6,1.2,11.96,1.94,17.94c1.16,9.26,9.7,16.18,19,15.34c9.21-0.83,16.34-8.99,15.95-18.22l-0.03-0.79
c-0.22-5.15-0.44-10.28-0.44-15.43c-0.01-7.95,0.44-15.84,1.01-23.77c1.35-12.66,3.18-25.18,6-37.61
c2.9-12.76,6.62-25.34,11.08-37.65c3.31-9.15,7.04-18.15,11.12-26.99c0.47,0.15,0.95,0.29,1.42,0.43
c-0.82,11-0.81,22.09-0.14,33.1c0.69,11.35,2.33,22.53,4.27,33.73c2.64,12.6,5.69,25.09,9.89,37.27
c4.01,11.62,8.71,22.93,13.98,34.04c2.18,4.6,4.56,9.08,6.91,13.6c4.34,8.28,14.79,11.77,23.22,7.71
c8.23-3.97,12.06-13.96,8.62-22.42l-0.26-0.65c-3.72-9.14-7.38-18.32-10.19-27.8c-3.64-12.3-6.51-24.72-8.41-37.41
c-0.14-0.91-0.27-1.82-0.41-2.74c-0.3-2.62-0.6-5.25-0.9-7.9c-0.76-10.12-1.31-20.2-0.86-30.36c0.43-9.78,1.68-19.37,3.3-29.01
c1.11-5.24,2.26-10.44,3.75-15.59c0.69-2.39,1.47-4.75,2.3-7.1c0.39-1.1,3.54-9.4,3.76-10.45c0.92-2.95,1.55-5.98,1.89-9.05
c0.35-3.13,0.34-6.29,0.49-9.44c0.28-5.68,0.74-11.35,1.4-16.99c1.04-8.78,2.58-17.53,4.91-26.07
c2.37-8.7,5.48-17.69,10.61-25.2c0.39-0.56,0.77-1.13,1.21-1.64c15.04-17.32,19.52-33.04,13.51-51.01
c-6.01-17.98-22.55-25.89-41.41-27.64C1080.03,328.3,1022.82,326.05,1022.82,326.05z"/>
<path d="M1139.6,236.86c-18.04,0-34.94,10.41-43.08,26.51c-8.25,16.32-6.36,36.49,4.75,51c11.07,14.47,29.8,21.56,47.68,18.05
c17.55-3.45,32.11-16.84,37.03-34.03c5.02-17.55-0.52-36.89-14.07-49.12C1163.09,241.32,1151.48,236.86,1139.6,236.86z"/>
<path d="M937.49,328.98l0.36-0.23c4.06-2.66,8.06-5.4,11.59-8.76c4.17-3.97,7.5-8.7,9.67-14.04
c2.82-7.14,3.31-14.52,3.85-22.05c0.24-3.35,0.48-6.7,0.73-10.04c0.14-1.81,0.08-3.79,0.48-5.57
c16.74-0.39,26.78-7.88,31.46-8.92c3.54,7.31,7.13,14.59,11.45,21.47c2.59,4.14,5.42,8.17,8.72,11.77
c1.65,1.8,3.35,3.56,5.74,4.33c2.39,0.77,5.04,0.57,7.28-0.56c3.6-1.82,5.7-5.83,5.16-9.83c-0.59-4.35-4.36-6.92-7.03-10.05
c-5.77-6.76-10.25-14.59-13.89-22.68c2.29-2.12,4.09-4.73,5.25-7.66c7.6,7.28,19.39,8.72,28.51,3.48
c7.84-4.5,12.55-13.35,11.93-22.37c-0.64-9.2-6.69-17.38-15.29-20.69c-8.87-3.41-19.22-1.13-25.81,5.73
c-2.7,2.81-4.69,6.28-5.77,10.03c-3.93-3.1-8.98-4.81-14.37-4.41h-0.01c-10.89,0.81-22.02,3.3-32.12,7.48
c-11.27,4.66-21.31,11.8-27.21,22.73c-1.28,2.38-2.57,4.97-3.22,7.6c-0.59,2.37-0.6,4.86-0.36,7.28c0.3,3.12,1.1,6.1,1.89,9.11
c0.83,3.16,1.47,6.37,1.96,9.6c0.78,5.13,1.44,10.78,0.42,15.92c-0.58,2.94-2.14,5.42-4.36,7.41
c-1.19,1.06-2.52,1.97-3.91,2.75c-0.62,0.34-1.25,0.66-1.89,0.95c-0.32,0.15-0.9,0.53-1.26,0.53
c-6.11,2.37-8.97,9.69-5.93,15.53C924.52,330.56,932.05,332.54,937.49,328.98z"/>
</g>
</g>
</g>
</g>
<g id="Layer_7" class="st0">
<g class="st1">
<g>
<g>
<path d="M1010.62,500.94H848.23c-2.61,0-5.06,1.09-6.71,2.98c-1.65,1.89-2.39,4.46-2.04,7.05l16.01,94.08
c0.73,5.03,5.25,8.96,10.34,8.96h127.19c5.08,0,9.61-3.93,10.34-8.95l15.99-93.96l0.02-0.12c0.36-2.59-0.39-5.16-2.04-7.05
C1015.68,502.02,1013.24,500.94,1010.62,500.94z"/>
<path d="M1022.03,429.49h-89.81v-46.83c0.3-0.11,0.44-0.22,0.57-0.35c5.21-5.08,13.78-7.8,23.7-10.95
c18.1-5.74,40.63-12.89,54.63-38.93c7.55-14.04,11.52-33.16,11.18-53.83c-0.27-16.53-3.38-32.53-7.73-39.81
c-1.9-3.19-4.15-4.8-6.67-4.8c-1.34,0-3.3,0.48-5.02,2.75c-4.23,5.6-13.34,8.44-23.89,11.72
c-18.07,5.62-40.56,12.61-54.07,37.74c-6.81,12.66-10,27.87-10.83,42.46c-3.3-5.4-7.71-10.66-13.69-15.55
c-18.59-15.2-46.68-20.59-65.09-20.59c-11.73,0-18.57,2.03-20.36,6.02c-0.44,0.99-1.2,3.6,1.27,6.34
c4,4.46,4.91,12.69,5.96,22.21c1.82,16.54,4.08,37.12,23.55,53.04c18.23,14.91,44.78,20.22,63.54,20.22
c2.64,0,8.65-0.4,8.65-0.4v29.52h-80.49c-5.29,0-9.59,4.29-9.59,9.59v37.36c0,5.29,4.29,9.59,9.59,9.59h184.59
c5.29,0,9.59-4.29,9.59-9.59v-37.36C1031.62,433.79,1027.33,429.49,1022.03,429.49z M903.57,372.85l-0.32-0.33l-0.08-0.08
l-0.02-0.02c-0.02-0.03,0.12,0.15,0.05,0.07l-0.04-0.03l-0.16-0.14c-0.41-0.37-0.83-0.75-1.26-1.13
c-0.89-0.72-1.77-1.48-2.73-2.18c-3.79-2.86-8.26-5.45-13.03-7.95c-4.76-2.52-9.79-4.98-14.45-7.84
c-2.33-1.42-4.55-2.96-6.58-4.58c-2.02-1.63-3.82-3.4-5.29-5.21c-1.45-1.82-2.62-3.64-3.36-5.39
c-0.21-0.42-0.37-0.85-0.52-1.26c-0.15-0.41-0.29-0.81-0.42-1.19c-0.2-0.79-0.39-1.49-0.51-2.14c-0.1-0.67-0.17-1.25-0.22-1.76
c-0.05-0.5-0.02-0.91-0.03-1.26c0.01-0.69,0.02-1.05,0.02-1.05s0.19,0.31,0.56,0.89c0.19,0.29,0.38,0.67,0.66,1.06
c0.27,0.38,0.58,0.82,0.93,1.31c0.38,0.46,0.79,0.97,1.24,1.52c0.52,0.5,0.96,1.09,1.58,1.62c0.29,0.27,0.59,0.55,0.9,0.83
c0.33,0.26,0.66,0.54,1.01,0.81c0.33,0.28,0.72,0.53,1.08,0.81c0.36,0.28,0.75,0.55,1.16,0.8c1.61,1.06,3.42,2.08,5.45,3.06
c2.02,0.99,4.23,1.95,6.57,2.94c4.68,1.99,9.88,4.11,15.05,6.81c2.58,1.35,5.14,2.87,7.57,4.57c2.43,1.7,4.72,3.61,6.76,5.67
c1.02,1.02,1.96,2.11,2.84,3.2c0.42,0.56,0.83,1.12,1.25,1.67l0.15,0.2l0.04,0.05c-0.06-0.07,0.1,0.12,0.09,0.11l0.02,0.02
l0.06,0.1l0.25,0.39c0.16,0.26,0.32,0.52,0.48,0.78c1.28,2.06,2.46,4.04,3.51,5.88c0.52,0.93,1.03,1.82,1.48,2.68
c0.45,0.87,0.87,1.7,1.26,2.49c0.26,0.53,0.49,1.02,0.72,1.51v4.28c-0.15-0.12-0.29-0.23-0.45-0.36
c-0.97-0.79-2.13-1.78-3.42-2.92c-1.28-1.16-2.73-2.47-4.3-3.9c-1.56-1.45-3.21-3.04-4.92-4.76
C904.01,373.28,903.79,373.06,903.57,372.85z M944.82,350.84l0.33-0.41l0.08-0.1l0.02-0.03c0.02-0.02-0.08,0.08-0.03,0.03
l0.03-0.05l0.14-0.2c0.37-0.53,0.74-1.06,1.12-1.61c0.7-1.13,1.44-2.24,2.11-3.45c2.73-4.77,5.02-10.29,7.11-16.12
c2.12-5.81,4.09-11.91,6.54-17.62c1.22-2.85,2.56-5.61,4.05-8.15c1.48-2.54,3.16-4.85,4.92-6.8c1.78-1.94,3.6-3.55,5.41-4.68
c0.43-0.3,0.88-0.56,1.32-0.8c0.43-0.24,0.85-0.47,1.25-0.68c0.84-0.37,1.59-0.7,2.29-0.96c0.73-0.23,1.37-0.42,1.92-0.57
c0.55-0.15,1.02-0.2,1.4-0.27c0.77-0.12,1.18-0.18,1.18-0.18s-0.33,0.26-0.94,0.73c-0.3,0.24-0.7,0.51-1.12,0.87
c-0.4,0.35-0.86,0.76-1.37,1.21c-0.48,0.48-1.01,1.02-1.58,1.6c-0.26,0.31-0.53,0.63-0.82,0.96c-0.29,0.32-0.57,0.66-0.83,1.04
c-0.27,0.37-0.55,0.74-0.84,1.13c-0.26,0.41-0.53,0.83-0.8,1.26c-0.28,0.41-0.52,0.89-0.79,1.35c-0.13,0.23-0.26,0.46-0.4,0.7
c-0.12,0.25-0.24,0.49-0.36,0.74c-1,1.98-1.93,4.2-2.77,6.66c-0.85,2.45-1.63,5.11-2.42,7.92c-1.58,5.61-3.19,11.83-5.44,18.08
c-1.13,3.12-2.43,6.23-3.95,9.23c-1.52,3-3.29,5.87-5.26,8.48c-0.97,1.31-2.04,2.54-3.1,3.7c-0.56,0.56-1.11,1.12-1.66,1.67
l-0.2,0.2l-0.05,0.05l-0.07,0.08l-0.02,0.02l-0.1,0.09l-0.39,0.35c-0.26,0.23-0.53,0.46-0.79,0.69
c-1.05,0.91-2.05,1.8-3.05,2.64c-0.98,0.84-2.02,1.65-2.99,2.4c-0.98,0.75-1.91,1.48-2.81,2.15c-0.91,0.66-1.75,1.28-2.57,1.84
c-1.63,1.14-3.07,2.1-4.26,2.88c-2.39,1.57-3.85,2.38-3.85,2.38s0.8-1.45,2.37-3.86c0.78-1.21,1.76-2.64,2.91-4.25
c1.16-1.61,2.46-3.4,3.87-5.31c1.44-1.92,3-4.01,4.65-6.21C944.4,351.39,944.61,351.12,944.82,350.84z"/>
</g>
</g>
</g>
</g>
<g class="st0">
<g class="st1">
<path d="M1108.92,296H761.06c-5.01,0-9.06,4.06-9.06,9.06v223.22c0,5.01,4.06,9.06,9.06,9.06h123.52
c-2.09,12.98-7.09,36.97-17.93,60.65c-0.8,1.74-1.15,3.69-0.78,5.58c0.87,4.49,4.69,7.43,8.91,7.43h119.26
c1.92,0,3.83-0.51,5.39-1.63c3.7-2.66,4.78-7.36,3.02-11.19c-10.9-23.74-15.92-47.82-18.02-60.84h124.51
c5.01,0,9.06-4.06,9.06-9.06V305.06C1117.99,300.06,1113.93,296,1108.92,296z M1099.86,519.22h-20.4v-4.25
c0-4.54-3.22-8.6-7.72-9.25c-5.6-0.81-10.41,3.52-10.41,8.97v4.53h-14.73v-4.25c0-4.54-3.22-8.61-7.72-9.25
c-5.6-0.8-10.41,3.52-10.41,8.97v4.53H770.13V314.13h329.73V519.22z"/>
<path d="M956.72,433.9c-8.33,0-15.75,3.96-20.49,10.08l-24.46-12.54c2.51-3.99,3.96-8.7,3.96-13.74c0-5.05-1.46-9.76-3.96-13.74
l24.46-12.54c4.74,6.13,12.16,10.08,20.49,10.08c14.28,0,25.9-11.62,25.9-25.89s-11.62-25.89-25.9-25.89s-25.9,11.62-25.9,25.89
c0,1.9,0.21,3.75,0.6,5.54l-28.15,14.43c-3.92-2.39-8.52-3.77-13.44-3.77c-14.28,0-25.9,11.62-25.9,25.89
c0,14.28,11.62,25.89,25.9,25.89c4.92,0,9.52-1.38,13.44-3.77l28.15,14.43c-0.39,1.79-0.6,3.64-0.6,5.54
c0,14.28,11.62,25.89,25.9,25.89s25.9-11.62,25.9-25.89C982.62,445.52,971,433.9,956.72,433.9z"/>
</g>
</g>
<g id="Layer_12" class="st0">
<circle id="_x3C_sun_x3E_" class="st1" cx="1095" cy="306" r="67"/>
</g>
<g id="Layer_10" class="st0">
<g class="st1">
<path d="M1192.38,542.85l-103.34-161.62c-2.11-3.3-5.75-5.3-9.66-5.3c-3.91,0-7.55,2-9.66,5.3L966.39,542.85
c-2.27,3.55-2.43,8.07-0.42,11.78c2.01,3.71,5.88,6.01,10.08,6.01h206.67c4.2,0,8.07-2.31,10.08-6.01
C1194.81,550.92,1194.65,546.41,1192.38,542.85L1192.38,542.85z M1079.38,408.83l30.64,47.92h-30.64l-22.96,23.09l-13.66-13.73
L1079.38,408.83z"/>
</g>
</g>
<g id="Layer_8" class="st0">
<g class="st1">
<path d="M1092.2,536.45L948.76,313.32c-2.93-4.56-7.98-7.32-13.41-7.32c-5.42,0-10.47,2.76-13.41,7.32L778.51,536.45
c-3.15,4.9-3.38,11.14-0.58,16.26c2.8,5.12,8.16,8.3,13.99,8.3h286.88c5.83,0,11.2-3.18,13.99-8.3
C1095.58,547.58,1095.35,541.35,1092.2,536.45L1092.2,536.45z M935.36,351.41l42.53,66.15h-42.53l-31.88,31.88l-18.96-18.96
L935.36,351.41z"/>
</g>
</g>
<g id="Layer_11" class="st0">
<g class="st1">
<path d="M857.76,546.55l-82.31-128.04c-1.68-2.62-4.58-4.2-7.69-4.2c-3.11,0-6.01,1.58-7.69,4.2l-82.31,128.04
c-1.81,2.81-1.94,6.39-0.33,9.33c1.6,2.94,4.68,4.76,8.03,4.76h164.62c3.35,0,6.42-1.83,8.03-4.76
C859.7,552.94,859.57,549.36,857.76,546.55L857.76,546.55z M767.76,440.37l24.4,37.96h-24.4l-18.29,18.29l-10.88-10.88
L767.76,440.37z"/>
</g>
</g>
<g id="Layer_15">
<g>
<path d="M1042.59,464.92l-4,3.16c-0.84-1.26-1.68-2.53-2.53-3.79c0-0.21-0.21-0.42-0.42-0.42c-6.32-7.58-11.16-16.84-14.52-27.58
c-4-13.47-4-24.42-4-24.63c0-1.68-0.84-2.95-2.32-3.79c-1.47-0.63-3.16-0.63-4.42,0.42c-30.94,22.52-41.68,51.36-45.05,64.83
c-5.05-6.95-6.1-17.26-6.1-17.26c-0.21-1.47-1.05-2.95-2.53-3.58s-3.16-0.42-4.21,0.63c-5.26,4.42-9.68,9.47-13.05,15.16l-4-3.16
c-22.1-17.89-30.73-40.42-24-61.47c5.26-16.42,19.58-28.63,34.73-29.47c0.84,0,1.68,0,2.74,0c14.52,0,28.21,7.16,36.63,19.16
c0.84,1.05,2.11,1.68,3.37,1.68s2.53-0.63,3.37-1.68c8.42-12,22.1-19.16,36.63-19.16c0.84,0,1.68,0,2.74,0
c15.16,0.84,29.26,13.05,34.73,29.47C1073.11,424.5,1064.48,447.02,1042.59,464.92z M1028.91,468.55
c-6.95-8.42-12.21-18.52-15.79-30.31c-2.11-7.37-3.37-13.89-3.79-18.73c-32.63,26.94-37.26,61.47-37.26,61.68
c-0.21,1.47-1.05,2.53-2.32,3.16s-2.74,0.63-4,0c-8-4.63-11.79-13.68-13.47-20.21c-8,8.84-12.42,20.63-12.42,32.63
c0,16.42,8,31.15,21.05,40.21c-2.1-4.21-3.37-9.26-3.37-14.31c0-9.47,4.21-18.31,11.37-24.21c1.26-1.05,2.95-1.26,4.42-0.63
s2.32,1.89,2.53,3.58c0,0.63,0.21,1.89,0.63,3.37c2.95-8,9.26-19.58,22.31-29.26c1.26-0.84,2.95-1.05,4.42-0.42
c1.47,0.63,2.32,2.11,2.32,3.79c0,0.21,0,14.74,8.84,25.26c0,0.21,0.21,0.21,0.21,0.42c3.79,5.26,5.68,10.95,5.68,17.89
c0,5.05-1.26,9.89-3.37,14.31c13.05-9.05,21.05-24,21.05-40.21C1037.96,485.39,1035.22,476.76,1028.91,468.55
C1029.12,468.76,1029.12,468.55,1028.91,468.55z M1007.86,509.81c-6.1-7.37-8.63-16.21-9.89-22.31
c-13.68,12.84-15.58,27.58-15.58,27.79c-0.21,1.47-1.05,2.53-2.32,3.16c-1.26,0.63-2.74,0.63-4,0c-3.16-1.89-5.26-4.84-6.53-7.79
c-2.32,3.58-3.79,7.79-3.79,12.21c0,9.47,5.68,17.89,14.31,21.47c1.05,0.42,2.32,0.84,3.37,1.05c3.58,0.84,6.95,0.84,10.53,0
c1.26-0.21,2.32-0.63,3.37-1.05c9.05-3.58,14.74-12,14.74-21.47C1012.07,517.6,1010.81,513.6,1007.86,509.81L1007.86,509.81z"/>
</g>
</g>
<g id="windowtable">
<path id="ha" class="st6" d="M433.47,62c0,151.7,0,303.41,0,455.11"/>
<path class="st6" d="M1602,62c0,153.19,0,306.39,0,459.58"/>
<path class="st6" d="M429,66.47c391,0,782,0,1173,0"/>
<path class="st6" d="M1193.85,517.12c134.56,0,269.12,0,403.67,0"/>
<path class="st6" d="M792.42,513.76c-121.14,0-242.28,0-363.42,0"/>
<line class="st6" x1="1359.35" y1="517.11" x2="1483.47" y2="740.75"/>
<line class="st6" x1="678.92" y1="516.83" x2="554.8" y2="740.48"/>
<path class="st6" d="M550.88,742.99c312.35,0,624.71,0,937.06,0"/>
</g>
</g>
<g id="Layer_14" class="st0">
<path id="_x3C_moon_x3E_" class="st1" d="M1093.4,373c20.67,0,39.54-9.4,52.04-24.81c1.85-2.28-0.17-5.61-3.03-5.06
c-32.51,6.19-62.36-18.73-62.36-51.55c0-18.9,10.12-36.28,26.56-45.64c2.54-1.44,1.9-5.29-0.98-5.82
c-4.04-0.74-8.14-1.12-12.24-1.12c-36.98,0-67,29.97-67,67C1026.4,342.98,1056.37,373,1093.4,373z"/>
</g>
</svg>